<svg width="300" height="300" viewBox="0 0 300 300" fill="none" xmlns="http://www.w3.org/2000/svg">
<rect width="300" height="300" fill="#2f4f4f"/>
<circle cx="200" cy="70" r="20" fill="#e6e6fa" opacity="0.8"/>
<g opacity="0.9">
<circle cx="80" cy="50" r="1.5" fill="white"/>
<circle cx="120" cy="40" r="1" fill="white"/>
<circle cx="150" cy="60" r="1.5" fill="white"/>
<circle cx="200" cy="45" r="1" fill="white"/>
<circle cx="230" cy="55" r="1.5" fill="white"/>
<circle cx="180" cy="35" r="1" fill="white"/>
<circle cx="100" cy="70" r="1" fill="white"/>
</g>
<path d="M0 200 Q150 180 300 200 L300 300 L0 300 Z" fill="#ffffff"/>
<rect x="80" y="160" width="15" height="40" fill="#654321"/>
<polygon points="87,155 75,160 99,160" fill="#006400"/>
<rect x="150" y="170" width="12" height="30" fill="#654321"/>
<polygon points="156,165 146,170 166,170" fill="#006400"/>
<text x="150" y="280" text-anchor="middle" fill="#2f4f4f" font-family="Arial, sans-serif" font-size="14" font-weight="bold">WINTER</text>
</svg>
